<?xml version="1.0" encoding="utf-8" standalone="no"?>
<!DOCTYPE svg PUBLIC "-//W3C//DTD SVG 1.1//EN"
  "http://www.w3.org/Graphics/SVG/1.1/DTD/svg11.dtd">
<svg xmlns:xlink="http://www.w3.org/1999/xlink" width="1946.978125pt" height="484.4pt" viewBox="0 0 1946.978125 484.4" xmlns="http://www.w3.org/2000/svg" version="1.1">
 <metadata>
  <rdf:RDF xmlns:dc="http://purl.org/dc/elements/1.1/" xmlns:cc="http://creativecommons.org/ns#" xmlns:rdf="http://www.w3.org/1999/02/22-rdf-syntax-ns#">
   <cc:Work>
    <dc:type rdf:resource="http://purl.org/dc/dcmitype/StillImage"/>
    <dc:date>2022-07-03T08:55:31.673148</dc:date>
    <dc:format>image/svg+xml</dc:format>
    <dc:creator>
     <cc:Agent>
      <dc:title>Matplotlib v3.5.2, https://matplotlib.org/</dc:title>
     </cc:Agent>
    </dc:creator>
   </cc:Work>
  </rdf:RDF>
 </metadata>
 <defs>
  <style type="text/css">*{stroke-linejoin: round; stroke-linecap: butt}</style>
 </defs>
 <g id="figure_1">
  <g id="patch_1">
   <path d="M 0 484.4 
L 1946.978125 484.4 
L 1946.978125 0 
L 0 0 
L 0 484.4 
z
" style="fill: none"/>
  </g>
  <g id="text_1">
   <!-- logoizer -->
   <g transform="translate(7.2 377.2)scale(5 -5)">
    <defs>
     <path id="Quicksand-Bold-6c" d="M 1248 390 
Q 1248 224 1136 112 
Q 1024 0 858 0 
Q 698 0 589 112 
Q 480 224 480 390 
L 480 4346 
Q 480 4512 592 4624 
Q 704 4736 870 4736 
Q 1037 4736 1142 4624 
Q 1248 4512 1248 4346 
L 1248 390 
z
" transform="scale(0.015625)"/>
     <path id="Quicksand-Bold-6f" d="M 3706 1709 
Q 3706 1184 3472 784 
Q 3238 384 2844 160 
Q 2451 -64 1965 -64 
Q 1478 -64 1084 160 
Q 691 384 457 784 
Q 224 1184 224 1709 
Q 224 2234 457 2634 
Q 691 3034 1084 3261 
Q 1478 3488 1965 3488 
Q 2451 3488 2844 3261 
Q 3238 3034 3472 2634 
Q 3706 2234 3706 1709 
z
M 2938 1709 
Q 2938 2035 2806 2275 
Q 2675 2515 2454 2649 
Q 2234 2784 1965 2784 
Q 1696 2784 1475 2649 
Q 1254 2515 1123 2275 
Q 992 2035 992 1709 
Q 992 1389 1123 1149 
Q 1254 909 1475 774 
Q 1696 640 1965 640 
Q 2234 640 2454 774 
Q 2675 909 2806 1149 
Q 2938 1389 2938 1709 
z
" transform="scale(0.015625)"/>
     <path id="Quicksand-Bold-67" d="M 1805 3488 
Q 2074 3488 2298 3405 
Q 2522 3322 2685 3194 
Q 2848 3066 2941 2934 
Q 3034 2803 3034 2714 
L 2867 2630 
L 2867 3098 
Q 2867 3264 2976 3376 
Q 3085 3488 3251 3488 
Q 3418 3488 3526 3379 
Q 3635 3270 3635 3098 
L 3635 250 
Q 3635 -307 3395 -643 
Q 3155 -979 2764 -1129 
Q 2374 -1280 1926 -1280 
Q 1798 -1280 1593 -1248 
Q 1389 -1216 1203 -1171 
Q 1018 -1126 922 -1088 
Q 730 -1005 656 -880 
Q 582 -755 627 -614 
Q 685 -429 813 -361 
Q 941 -294 1082 -346 
Q 1146 -365 1293 -422 
Q 1440 -480 1616 -528 
Q 1792 -576 1926 -576 
Q 2406 -576 2636 -384 
Q 2867 -192 2867 147 
L 2867 704 
L 2944 646 
Q 2944 563 2857 444 
Q 2771 326 2620 211 
Q 2470 96 2265 16 
Q 2061 -64 1830 -64 
Q 1376 -64 1011 163 
Q 646 390 435 790 
Q 224 1190 224 1709 
Q 224 2234 435 2634 
Q 646 3034 1004 3261 
Q 1363 3488 1805 3488 
z
M 1926 2784 
Q 1638 2784 1420 2643 
Q 1203 2502 1081 2259 
Q 960 2016 960 1709 
Q 960 1408 1081 1165 
Q 1203 922 1420 781 
Q 1638 640 1926 640 
Q 2221 640 2438 781 
Q 2656 922 2777 1165 
Q 2899 1408 2899 1709 
Q 2899 2016 2777 2259 
Q 2656 2502 2438 2643 
Q 2221 2784 1926 2784 
z
" transform="scale(0.015625)"/>
     <path id="Quicksand-Bold-69" d="M 1139 390 
Q 1139 224 1030 112 
Q 922 0 755 0 
Q 589 0 480 112 
Q 371 224 371 390 
L 371 3034 
Q 371 3200 480 3312 
Q 589 3424 755 3424 
Q 922 3424 1030 3312 
Q 1139 3200 1139 3034 
L 1139 390 
z
M 749 3840 
Q 531 3840 441 3910 
Q 352 3981 352 4160 
L 352 4282 
Q 352 4467 451 4534 
Q 550 4602 755 4602 
Q 979 4602 1068 4531 
Q 1158 4461 1158 4282 
L 1158 4160 
Q 1158 3974 1062 3907 
Q 966 3840 749 3840 
z
" transform="scale(0.015625)"/>
     <path id="Quicksand-Bold-7a" d="M 2598 704 
Q 2752 704 2854 605 
Q 2957 506 2957 352 
Q 2957 205 2854 102 
Q 2752 0 2598 0 
L 538 0 
Q 378 0 282 115 
Q 186 230 192 346 
Q 198 442 217 515 
Q 237 589 314 685 
L 1907 2746 
L 1894 2656 
L 595 2656 
Q 442 2656 339 2758 
Q 237 2861 237 3014 
Q 237 3162 339 3261 
Q 442 3360 595 3360 
L 2566 3360 
Q 2714 3360 2816 3251 
Q 2918 3142 2906 2976 
Q 2899 2912 2883 2848 
Q 2867 2784 2797 2694 
L 1229 666 
L 1229 704 
L 2598 704 
z
" transform="scale(0.015625)"/>
     <path id="Quicksand-Bold-65" d="M 1997 -64 
Q 1453 -64 1053 163 
Q 653 390 438 780 
Q 224 1171 224 1664 
Q 224 2240 457 2646 
Q 691 3053 1068 3270 
Q 1446 3488 1869 3488 
Q 2195 3488 2486 3353 
Q 2778 3219 3002 2985 
Q 3226 2752 3357 2445 
Q 3488 2138 3488 1792 
Q 3482 1638 3366 1542 
Q 3251 1446 3098 1446 
L 653 1446 
L 461 2086 
L 2810 2086 
L 2669 1958 
L 2669 2131 
Q 2656 2317 2537 2464 
Q 2419 2611 2243 2697 
Q 2067 2784 1869 2784 
Q 1677 2784 1510 2733 
Q 1344 2682 1222 2560 
Q 1101 2438 1030 2233 
Q 960 2029 960 1715 
Q 960 1370 1104 1130 
Q 1248 890 1475 765 
Q 1702 640 1958 640 
Q 2195 640 2336 678 
Q 2477 717 2563 771 
Q 2650 826 2720 864 
Q 2835 922 2938 922 
Q 3078 922 3171 826 
Q 3264 730 3264 602 
Q 3264 429 3085 288 
Q 2918 147 2617 41 
Q 2317 -64 1997 -64 
z
" transform="scale(0.015625)"/>
     <path id="Quicksand-Bold-72" d="M 800 0 
Q 634 0 525 112 
Q 416 224 416 390 
L 416 3034 
Q 416 3200 525 3312 
Q 634 3424 800 3424 
Q 966 3424 1075 3312 
Q 1184 3200 1184 3034 
L 1184 2432 
L 1139 2861 
Q 1210 3014 1322 3132 
Q 1434 3251 1574 3331 
Q 1715 3411 1875 3449 
Q 2035 3488 2195 3488 
Q 2387 3488 2518 3379 
Q 2650 3270 2650 3123 
Q 2650 2912 2541 2819 
Q 2432 2726 2304 2726 
Q 2182 2726 2083 2771 
Q 1984 2816 1856 2816 
Q 1741 2816 1622 2761 
Q 1504 2707 1405 2592 
Q 1306 2477 1245 2307 
Q 1184 2138 1184 1907 
L 1184 390 
Q 1184 224 1075 112 
Q 966 0 800 0 
z
" transform="scale(0.015625)"/>
    </defs>
    <use xlink:href="#Quicksand-Bold-6c"/>
    <use xlink:href="#Quicksand-Bold-6f" x="26.999985"/>
    <use xlink:href="#Quicksand-Bold-67" x="88.399979"/>
    <use xlink:href="#Quicksand-Bold-6f" x="151.699966"/>
    <use xlink:href="#Quicksand-Bold-69" x="213.09996"/>
    <use xlink:href="#Quicksand-Bold-7a" x="236.699951"/>
    <use xlink:href="#Quicksand-Bold-65" x="285.099945"/>
    <use xlink:href="#Quicksand-Bold-72" x="343.09993"/>
   </g>
  </g>
 </g>
</svg>
